<svg fill="#4fbad3" height="200px" width="200px" version="1.1" id="Layer_1" xmlns="http://www.w3.org/2000/svg" xmlns:xlink="http://www.w3.org/1999/xlink" viewBox="0 0 24 24" xml:space="preserve" stroke="#4fbad3"><g id="SVGRepo_bgCarrier" stroke-width="0"></g><g id="SVGRepo_tracerCarrier" stroke-linecap="round" stroke-linejoin="round"></g><g id="SVGRepo_iconCarrier"> <g> <polygon points="13,12 13,10 11,10 11,12 9,12 9,14 11,14 11,16 13,16 13,14 15,14 15,12 "></polygon> <path d="M21,6V5H11V4h-1V3H3v1H2v16h1v1h18v-1h1V6H21z M20,18h-1v1H5v-1H4V6h1V5h3v1h1v1h10v1h1V18z"></path> </g> </g></svg>
