<svg height="200px" width="200px" version="1.1" id="_x32_" xmlns="http://www.w3.org/2000/svg" xmlns:xlink="http://www.w3.org/1999/xlink" viewBox="0 0 512 512" xml:space="preserve" fill="#4fbad3" stroke="#4fbad3"><g id="SVGRepo_bgCarrier" stroke-width="0"></g><g id="SVGRepo_tracerCarrier" stroke-linecap="round" stroke-linejoin="round"></g><g id="SVGRepo_iconCarrier"> <style type="text/css"> .st0{fill:##4fbad3;} </style> <g> <path class="st0" d="M458.159,404.216c-18.93-33.65-49.934-71.764-100.409-93.431c-28.868,20.196-63.938,32.087-101.745,32.087 c-37.828,0-72.898-11.89-101.767-32.087c-50.474,21.667-81.479,59.782-100.398,93.431C28.731,448.848,48.417,512,91.842,512 c43.426,0,164.164,0,164.164,0s120.726,0,164.153,0C463.583,512,483.269,448.848,458.159,404.216z"></path> <path class="st0" d="M256.005,300.641c74.144,0,134.231-60.108,134.231-134.242v-32.158C390.236,60.108,330.149,0,256.005,0 c-74.155,0-134.252,60.108-134.252,134.242V166.4C121.753,240.533,181.851,300.641,256.005,300.641z"></path> </g> </g></svg>